# xmcd
#
# Track frame offsets:
#	150
#	9557
#	30735
#	44642
#	61867
#	87445
#	111772
#	130352
#	142985
#	157222
#
# Disc length: 2300 seconds
#
# Revision: 0
# Processed by: cddbd v1.4PL0 Copyright (c) Steve Scherf et al.
# Submitted via: EasyCDDAExtractor 4.5.2.1
#
DISCID=8908fa0a
DTITLE=Nashville Mandoline Ensemble - Gifts
DYEAR=1900
DGENRE=Country
TTITLE0=Carol Of The Bells
TTITLE1=The First Noel/O Come, O Come Emmanuel
TTITLE2=Dance Of The Mirlitons
TTITLE3=Christmas In County Kerry
TTITLE4=Suite Of Ancient Carols
TTITLE5=I Wonder As I Wander/Simple Gifts
TTITLE6=Cantique De Noel
TTITLE7=Christmas Is Coming (Around)
TTITLE8=Lo! How A Rose E'er Blooming
TTITLE9=Sleight Ride
EXTD=
EXTT0=
EXTT1=
EXTT2=
EXTT3=
EXTT4=
EXTT5=
EXTT6=
EXTT7=
EXTT8=
EXTT9=
PLAYORDER=
